HIERARCHY
ROOT Hips
{
	OFFSET 0.000000 0.000000 0.000000 
	CHANNELS 6 Xposition Yposition Zposition Zrotation Yrotation Xrotation
	JOINT LeftUpLeg
	{
		OFFSET 1.363060 -1.794630 0.839290 
		CHANNELS 3 Zrotation Yrotation Xrotation
		JOINT LeftLeg
		{
			OFFSET 2.448110 -6.726130 0.000000 
			CHANNELS 3 Zrotation Yrotation Xrotation
			JOINT LeftFoot
			{
				OFFSET 2.562200 -7.039590 0.000000 
				CHANNELS 3 Zrotation Yrotation Xrotation
				JOINT LeftToeBase
				{
					OFFSET 0.157640 -0.433110 2.322550 
					CHANNELS 3 Zrotation Yrotation Xrotation
					End Site
					{
						OFFSET 0.000000 0.000000 0.000000 
					}
				}
			}
		}
	}
	JOINT RightUpLeg
	{
		OFFSET -1.305520 -1.794630 0.839290 
		CHANNELS 3 Zrotation Yrotation Xrotation
		JOINT RightLeg
		{
			OFFSET -2.542530 -6.985550 0.000000 
			CHANNELS 3 Zrotation Yrotation Xrotation
			JOINT RightFoot
			{
				OFFSET -2.568260 -7.056230 0.000000 
				CHANNELS 3 Zrotation Yrotation Xrotation
				JOINT RightToeBase
				{
					OFFSET -0.164730 -0.452590 2.363150 
					CHANNELS 3 Zrotation Yrotation Xrotation
					End Site
					{
						OFFSET 0.000000 0.000000 0.000000 
					}
				}
			}
		}
	}
	JOINT Spine
	{
		OFFSET 0.028270 2.035590 -0.193380 
		CHANNELS 3 Zrotation Yrotation Xrotation
		JOINT Spine1
		{
			OFFSET 0.056720 2.048850 -0.042750 
			CHANNELS 3 Zrotation Yrotation Xrotation
			JOINT Neck1
			{
				OFFSET -0.054170 1.746240 0.172020 
				CHANNELS 3 Zrotation Yrotation Xrotation
				JOINT Head
				{
					OFFSET 0.104070 1.761360 -0.123970 
					CHANNELS 3 Zrotation Yrotation Xrotation
					End Site
					{
						OFFSET 0.000000 0.000000 0.000000 
					}
				}
			}
			JOINT LeftArm
			{
				OFFSET 3.362410 1.200890 -0.311210 
				CHANNELS 3 Zrotation Yrotation Xrotation
				JOINT LeftForeArm
				{
					OFFSET 4.983000 -0.000000 -0.000000 
					CHANNELS 3 Zrotation Yrotation Xrotation
					JOINT LeftHand
					{
						OFFSET 3.483560 -0.000000 -0.000000 
						CHANNELS 3 Zrotation Yrotation Xrotation
						JOINT LeftHandIndex1
						{
							OFFSET 0.715260 -0.000000 -0.000000 
							CHANNELS 3 Zrotation Yrotation Xrotation
							End Site
							{
								OFFSET 0.000000 0.000000 0.000000 
							}
						}
					}
				}
			}
			JOINT RightArm
			{
				OFFSET -3.136600 1.374050 -0.404650 
				CHANNELS 3 Zrotation Yrotation Xrotation
				JOINT RightForeArm
				{
					OFFSET -5.241900 -0.000000 -0.000000 
					CHANNELS 3 Zrotation Yrotation Xrotation
					JOINT RightHand
					{
						OFFSET -3.444170 -0.000000 -0.000000 
						CHANNELS 3 Zrotation Yrotation Xrotation
						JOINT RightHandIndex1
						{
							OFFSET -0.622530 -0.000000 -0.000000 
							CHANNELS 3 Zrotation Yrotation Xrotation
							End Site
							{
								OFFSET 0.000000 0.000000 0.000000 
							}
						}
					}
				}
			}
		}
	}
}
MOTION
Frames: 18
Frame Time: 0.041667
-0.847672 18.310065 5.891633 -2.586118 -2.623966 0.275163 -12.663212 -10.222413 -3.821841 0.847881 6.849111 22.808790 -0.940954 8.647427 -16.910073 8.012000 -16.128100 -52.605800 19.156932 -0.769808 6.212925 0.369234 0.976047 1.689216 0.078989 -3.994896 -13.044715 -0.008300 0.587300 -1.613800 1.281670 1.426688 23.600348 -2.739434 1.433133 -13.576846 4.526700 -3.608969 32.691716 0.933600 -1.026900 10.331000 -94.656529 7.489270 23.634724 24.069276 -33.242654 -6.048739 0.396881 -0.191454 17.686156 -7.125000 0.000000 0.000000 96.764462 -12.430020 15.311958 -32.267011 40.265732 -9.380034 0.857910 -3.269285 24.678246 7.125000 0.000000 0.000000 
-0.858263 18.316734 5.869373 -2.611817 -2.162647 0.619528 -12.466855 -9.877046 -4.493344 0.870978 6.865708 22.806433 -0.897057 8.206468 -16.136791 8.083700 -16.180500 -52.863600 19.258296 -1.120249 5.793413 0.368636 0.965403 1.685864 0.076190 -3.998845 -13.065183 -0.006500 0.521000 -1.431700 1.531345 1.230735 22.783510 -2.704205 1.342020 -13.603986 4.594333 -3.634334 32.928797 0.958500 -1.027400 10.348200 -94.566530 7.601568 23.712314 24.124654 -33.256929 -6.068328 0.397606 -0.184786 17.499603 -7.125000 0.000000 0.000000 96.690144 -12.476072 15.308524 -32.245047 40.204954 -9.360073 0.857282 -3.264795 24.680336 7.125000 0.000000 0.000000 
-0.889840 18.338602 5.802983 -2.583895 -0.772046 1.771630 -12.077737 -9.142100 -6.452677 0.926732 6.920083 22.790845 -0.758902 6.967914 -13.985235 8.237400 -16.291100 -53.413500 19.483770 -2.148530 4.451323 0.365378 0.925415 1.672562 0.070633 -4.000881 -13.068093 -0.002400 0.316500 -0.869700 2.278437 0.658540 19.788053 -2.503143 1.082514 -13.501563 4.568222 -3.638165 33.603676 0.980000 -1.026600 10.362200 -94.335777 7.930047 23.750815 24.208107 -33.188865 -6.090381 0.397109 -0.179679 17.382902 -7.125000 0.000000 0.000000 96.457129 -12.733979 15.254036 -32.251415 40.065514 -9.338667 0.858247 -3.251499 24.661699 7.125000 0.000000 0.000000 
-0.890330 18.338798 5.802002 -2.621002 -0.770364 1.750612 -12.053594 -9.180210 -6.432208 0.927734 6.916595 22.790003 -0.756503 6.953939 -13.977806 8.213600 -16.274100 -53.328300 19.505348 -2.149294 4.457904 0.365415 0.926180 1.672653 0.073137 -4.012857 -13.063188 -0.003400 0.373800 -1.027000 2.458755 0.635920 19.916500 -2.551852 1.079004 -13.513232 4.609176 -3.644695 33.535194 0.995800 -1.029500 10.351200 -94.365647 7.902908 23.722241 24.184015 -33.173175 -6.082559 0.397913 -0.183591 17.408810 -7.125000 0.000000 0.000000 96.454449 -12.716713 15.224249 -32.267918 40.082734 -9.343974 0.864261 -3.250616 24.656185 7.125000 0.000000 0.000000 
-0.890918 18.338994 5.800727 -2.620481 -0.772047 1.755554 -12.052809 -9.205692 -6.432226 0.926381 6.916784 22.791160 -0.761209 6.984717 -14.016724 8.204100 -16.267300 -53.294600 19.505226 -2.144046 4.449624 0.365003 0.926029 1.672473 0.071993 -3.998809 -13.048378 -0.001600 0.262300 -0.720700 2.483690 0.634986 19.934087 -2.544757 1.082138 -13.516581 4.555269 -3.625884 33.481122 0.982900 -1.028800 10.333200 -94.394121 7.893002 23.646288 24.161357 -33.150453 -6.072511 0.396201 -0.187918 17.476542 -7.125000 0.000000 0.000000 96.437248 -12.711540 15.224144 -32.262561 40.075351 -9.336479 0.871596 -3.249975 24.638363 7.125000 0.000000 0.000000 
-0.891016 18.339289 5.800433 -2.625486 -0.773299 1.764986 -12.032440 -9.145022 -6.467106 0.927084 6.920243 22.795252 -0.759997 6.979073 -14.011638 8.228800 -16.285000 -53.382800 19.522373 -2.143853 4.448588 0.364877 0.926167 1.672544 0.072940 -3.993323 -13.027216 -0.000600 0.154500 -0.424500 2.394306 0.654200 19.885512 -2.530841 1.085228 -13.516755 4.466854 -3.606011 33.477090 0.954600 -1.027200 10.324100 -94.372879 7.932931 23.655474 24.192406 -33.176478 -6.083901 0.393763 -0.187531 17.476251 -7.125000 0.000000 0.000000 96.423498 -12.710953 15.245857 -32.229514 40.039361 -9.313300 0.874335 -3.248676 24.591525 7.125000 0.000000 0.000000 
-0.891115 18.339191 5.800433 -2.644808 -0.780065 1.769242 -12.001473 -9.114788 -6.487457 0.928759 6.922113 22.797343 -0.747646 6.929196 -14.009018 8.241100 -16.293700 -53.426400 19.553024 -2.136919 4.446552 0.365104 0.926988 1.672886 0.072923 -3.992643 -13.025745 -0.000400 0.126600 -0.348000 2.325763 0.676690 19.899628 -2.542022 1.089238 -13.513511 4.466163 -3.624221 33.454728 0.947900 -1.034800 10.316200 -94.338431 7.943758 23.700791 24.204802 -33.188940 -6.089537 0.395363 -0.184656 17.467626 -7.125000 0.000000 0.000000 96.433970 -12.710154 15.242720 -32.221031 40.029681 -9.306803 0.871008 -3.247310 24.560232 7.125000 0.000000 0.000000 
-0.890918 18.338602 5.800825 -2.634316 -0.791917 1.765615 -12.009898 -9.155919 -6.473055 0.929809 6.923316 22.802542 -0.741794 6.909416 -14.020555 8.236200 -16.290300 -53.409100 19.548043 -2.123765 4.444908 0.365066 0.927918 1.673249 0.068915 -3.974188 -13.038548 -0.000200 0.082400 -0.226300 2.248562 0.685831 19.972856 -2.524937 1.093005 -13.506991 4.483016 -3.631825 33.435247 0.949800 -1.036000 10.313000 -94.342473 7.927804 23.666155 24.180583 -33.167075 -6.080914 0.398530 -0.184486 17.518051 -7.125000 0.000000 0.000000 96.439157 -12.707090 15.255914 -32.217934 40.029540 -9.305756 0.869113 -3.247476 24.574391 7.125000 0.000000 0.000000 
-0.890428 18.338406 5.800923 -2.628729 -0.796251 1.753689 -12.018046 -9.155065 -6.472484 0.929921 6.921440 22.801758 -0.752678 6.944177 -13.994600 8.246500 -16.297600 -53.445800 19.538163 -2.118295 4.445891 0.364891 0.928920 1.673435 0.069325 -3.970494 -13.027961 -0.000200 0.081200 -0.223200 2.244978 0.677149 20.080548 -2.517287 1.091877 -13.499576 4.430158 -3.609966 33.375418 0.936800 -1.033600 10.297200 -94.372960 7.899164 23.604299 24.162232 -33.153233 -6.074592 0.399502 -0.187138 17.567063 -7.125000 0.000000 0.000000 96.452887 -12.669874 15.241598 -32.182028 40.011260 -9.294693 0.866163 -3.251742 24.631142 7.125000 0.000000 0.000000 
-0.890330 18.338504 5.800531 -2.632096 -0.806665 1.742382 -12.012391 -9.122734 -6.482534 0.927861 6.918879 22.795857 -0.772519 7.018473 -13.982360 8.268100 -16.312900 -53.522600 19.542274 -2.107769 4.451219 0.364913 0.929819 1.673623 0.069780 -3.969616 -13.021700 -0.000200 0.099800 -0.274300 2.229113 0.683038 20.162896 -2.506576 1.096603 -13.500311 4.304479 -3.577792 33.318629 0.903300 -1.034400 10.279900 -94.454446 7.839202 23.341918 24.139476 -33.136967 -6.065982 0.394616 -0.196147 17.799238 -7.125000 0.000000 0.000000 96.449894 -12.654877 15.248832 -32.180488 40.018403 -9.299097 0.865701 -3.254124 24.618139 7.125000 0.000000 0.000000 
-0.890428 18.338602 5.800237 -2.603255 -0.825382 1.735025 -12.035240 -9.136040 -6.463691 0.925834 6.918331 22.793280 -0.778589 7.054916 -14.020524 8.264700 -16.310500 -53.510600 19.520631 -2.091136 4.459212 0.365101 0.930132 1.673683 0.068763 -3.967350 -13.030434 -0.000200 0.099500 -0.273200 2.112609 0.702906 20.181163 -2.456096 1.106766 -13.519804 4.185492 -3.553208 33.402657 0.870400 -1.033400 10.304600 -94.575390 7.785843 22.897174 24.126644 -33.130394 -6.061953 0.385392 -0.209637 18.189715 -7.125000 0.000000 0.000000 96.431476 -12.675846 15.290177 -32.208110 40.041562 -9.311268 0.869158 -3.252791 24.564981 7.125000 0.000000 0.000000 
-0.890722 18.338798 5.799747 -2.567794 -0.837825 1.725018 -12.059643 -9.156172 -6.437984 0.925065 6.917150 22.789959 -0.772734 7.039552 -14.043648 8.241000 -16.293700 -53.426000 19.494880 -2.082086 4.467361 0.365622 0.930773 1.673745 0.072940 -3.991540 -13.030290 -0.001000 0.208600 -0.573200 1.976631 0.717931 20.207688 -2.415547 1.112518 -13.537047 4.167736 -3.551548 33.430042 0.863600 -1.033100 10.312500 -94.619774 7.770847 22.701919 24.140337 -33.149412 -6.068622 0.380895 -0.213970 18.343529 -7.125000 0.000000 0.000000 96.483663 -12.668494 15.242060 -32.205912 40.051240 -9.313772 0.868148 -3.254579 24.615276 7.125000 0.000000 0.000000 
-0.891115 18.339092 5.799452 -2.554293 -0.833457 1.715465 -12.061322 -9.171383 -6.426418 0.923474 6.914136 22.780845 -0.771653 7.039291 -14.056920 8.228400 -16.284700 -53.381100 19.493427 -2.088571 4.471982 0.366134 0.931927 1.674165 0.074922 -4.007133 -13.039923 -0.001900 0.282000 -0.774800 1.877439 0.722961 20.265224 -2.398821 1.112149 -13.535490 4.172695 -3.537523 33.285573 0.863900 -1.028700 10.267600 -94.616198 7.755412 22.694428 24.142311 -33.154576 -6.068128 0.379506 -0.212300 18.341427 -7.125000 0.000000 0.000000 96.540544 -12.650657 15.193580 -32.200770 40.056887 -9.312205 0.866192 -3.255262 24.666150 7.125000 0.000000 0.000000 
-0.891016 18.338798 5.799452 -2.535133 -0.826760 1.714154 -12.076628 -9.196089 -6.422353 0.920666 6.911435 22.772919 -0.780373 7.080790 -14.079000 8.242700 -16.294900 -53.432200 19.481742 -2.093887 4.466123 0.366094 0.932730 1.674464 0.073183 -3.997785 -13.043703 -0.001500 0.246200 -0.676400 1.788924 0.722724 20.321757 -2.368352 1.111382 -13.528260 4.064521 -3.495089 33.181752 0.835900 -1.023300 10.236200 -94.556974 7.760225 22.901479 24.135854 -33.142715 -6.062192 0.381749 -0.207038 18.141380 -7.125000 0.000000 0.000000 96.507262 -12.639786 15.261793 -32.199372 40.053087 -9.308145 0.870644 -3.254420 24.608802 7.125000 0.000000 0.000000 
-0.891409 18.338602 5.798962 -2.532970 -0.830608 1.707841 -12.080900 -9.207015 -6.416234 0.920666 6.909874 22.771086 -0.776853 7.069319 -14.089459 8.243600 -16.295500 -53.435400 19.476309 -2.088972 4.465892 0.365830 0.932989 1.674496 0.071317 -3.985323 -13.040593 -0.001000 0.204500 -0.562000 1.804139 0.714747 20.368782 -2.357588 1.110949 -13.534836 3.965024 -3.468770 33.164467 0.809900 -1.022700 10.232100 -94.423188 7.805000 23.380499 24.144530 -33.141922 -6.063398 0.390783 -0.193555 17.648324 -7.125000 0.000000 0.000000 96.472875 -12.618867 15.314629 -32.184556 40.041684 -9.301296 0.875355 -3.255806 24.568125 7.125000 0.000000 0.000000 
-0.892095 18.338504 5.797785 -2.568776 -0.835971 1.685538 -12.051469 -9.150607 -6.419129 0.923850 6.907903 22.772479 -0.760118 6.994935 -14.068311 8.242200 -16.294500 -53.430500 19.496680 -2.086657 4.483191 0.365454 0.933022 1.674708 0.065474 -3.959362 -13.056445 -0.000200 0.096200 -0.264400 1.966503 0.690717 20.414877 -2.397896 1.104965 -13.556264 4.044723 -3.474042 33.160920 0.833800 -1.016100 10.234600 -94.360240 7.826811 23.652003 24.157268 -33.154461 -6.068478 0.396333 -0.183444 17.348180 -7.125000 0.000000 0.000000 96.472141 -12.603062 15.309008 -32.169851 40.032732 -9.293894 0.873490 -3.255893 24.580613 7.125000 0.000000 0.000000 
-0.891899 18.337916 5.797001 -2.618647 -0.840080 1.667380 -12.013139 -9.074476 -6.432771 0.926927 6.907733 22.776542 -0.756680 6.965433 -14.021905 8.262600 -16.309100 -53.503200 19.532802 -2.085587 4.499739 0.365298 0.932994 1.674618 0.068717 -3.967429 -13.034467 -0.000100 0.072200 -0.198500 2.128242 0.664808 20.428442 -2.446656 1.094730 -13.573711 4.109584 -3.461363 33.149704 0.855400 -1.002600 10.231800 -94.374254 7.838628 23.652187 24.171756 -33.172137 -6.074783 0.395912 -0.180752 17.330383 -7.125000 0.000000 0.000000 96.452332 -12.626091 15.343113 -32.180842 40.039265 -9.298878 0.869252 -3.254373 24.548046 7.125000 0.000000 0.000000 
-0.891409 18.337621 5.795922 -2.629069 -0.832205 1.667690 -12.011254 -9.085180 -6.432899 0.927668 6.910408 22.784502 -0.759181 6.977092 -14.026892 8.261400 -16.308200 -53.499000 19.538809 -2.091141 4.494098 0.365755 0.932367 1.674116 0.076942 -4.008585 -13.018760 -0.001200 0.227500 -0.625100 2.181918 0.647671 20.387141 -2.444710 1.088609 -13.584068 4.042651 -3.420402 33.104059 0.840700 -0.991400 10.210400 -94.402459 7.857094 23.599322 24.171730 -33.170215 -6.074116 0.394964 -0.180083 17.353051 -7.125000 0.000000 0.000000 96.420607 -12.656131 15.398691 -32.195791 40.048045 -9.306211 0.869915 -3.253867 24.492220 7.125000 0.000000 0.000000 
